<mxfile host="app.diagrams.net" modified="2022-02-26T19:08:46.629Z" agent="5.0 (Windows NT 10.0; Win64; x64) AppleWebKit/537.36 (KHTML, like Gecko) Chrome/97.0.4692.99 Safari/537.36 OPR/83.0.4254.46" etag="OjS53d921vnA6xoig-i9" version="16.6.4" type="github">
  <diagram id="HTo3iiuKE1k7zcjPsBAO" name="Page-1">
    <mxGraphModel dx="729" dy="302" grid="1" gridSize="10" guides="1" tooltips="1" connect="1" arrows="1" fold="1" page="1" pageScale="1" pageWidth="850" pageHeight="1100" math="0" shadow="0">
      <root>
        <mxCell id="0" />
        <mxCell id="1" parent="0" />
        <mxCell id="6rk3nvtCwCU-dYlgrRcQ-2" value="User" style="shape=umlLifeline;participant=umlActor;perimeter=lifelinePerimeter;whiteSpace=wrap;html=1;container=1;collapsible=0;recursiveResize=0;verticalAlign=top;spacingTop=36;outlineConnect=0;" parent="1" vertex="1">
          <mxGeometry x="60" y="30" width="20" height="400" as="geometry" />
        </mxCell>
        <mxCell id="6rk3nvtCwCU-dYlgrRcQ-3" value="Device" style="shape=umlLifeline;participant=umlEntity;perimeter=lifelinePerimeter;whiteSpace=wrap;html=1;container=1;collapsible=0;recursiveResize=0;verticalAlign=top;spacingTop=36;outlineConnect=0;" parent="1" vertex="1">
          <mxGeometry x="270" y="30" width="40" height="400" as="geometry" />
        </mxCell>
        <mxCell id="6rk3nvtCwCU-dYlgrRcQ-11" value="2. Requests MindMap" style="html=1;verticalAlign=bottom;startArrow=oval;startFill=1;endArrow=block;startSize=8;rounded=0;" parent="6rk3nvtCwCU-dYlgrRcQ-3" target="6rk3nvtCwCU-dYlgrRcQ-4" edge="1">
          <mxGeometry width="60" relative="1" as="geometry">
            <mxPoint x="20" y="98" as="sourcePoint" />
            <mxPoint x="185" y="98" as="targetPoint" />
          </mxGeometry>
        </mxCell>
        <mxCell id="6rk3nvtCwCU-dYlgrRcQ-4" value="Application Controller" style="shape=umlLifeline;participant=umlEntity;perimeter=lifelinePerimeter;whiteSpace=wrap;html=1;container=1;collapsible=0;recursiveResize=0;verticalAlign=top;spacingTop=36;outlineConnect=0;" parent="1" vertex="1">
          <mxGeometry x="405" y="30" width="40" height="400" as="geometry" />
        </mxCell>
        <mxCell id="6rk3nvtCwCU-dYlgrRcQ-5" value="Database" style="shape=umlLifeline;participant=umlEntity;perimeter=lifelinePerimeter;whiteSpace=wrap;html=1;container=1;collapsible=0;recursiveResize=0;verticalAlign=top;spacingTop=36;outlineConnect=0;" parent="1" vertex="1">
          <mxGeometry x="560" y="30" width="40" height="400" as="geometry" />
        </mxCell>
        <mxCell id="6rk3nvtCwCU-dYlgrRcQ-6" value="1. Loads MindMap Editor Page with &lt;br&gt;specified MindMap" style="html=1;verticalAlign=bottom;startArrow=oval;startFill=1;endArrow=block;startSize=8;rounded=0;" parent="1" source="6rk3nvtCwCU-dYlgrRcQ-2" target="6rk3nvtCwCU-dYlgrRcQ-3" edge="1">
          <mxGeometry x="0.0045" y="10" width="60" relative="1" as="geometry">
            <mxPoint x="340" y="160" as="sourcePoint" />
            <mxPoint x="400" y="160" as="targetPoint" />
            <Array as="points">
              <mxPoint x="150" y="120" />
              <mxPoint x="230" y="120" />
            </Array>
            <mxPoint x="1" as="offset" />
          </mxGeometry>
        </mxCell>
        <mxCell id="6rk3nvtCwCU-dYlgrRcQ-12" value="3. Requests User path" style="html=1;verticalAlign=bottom;startArrow=oval;startFill=1;endArrow=block;startSize=8;rounded=0;" parent="1" target="6rk3nvtCwCU-dYlgrRcQ-5" edge="1">
          <mxGeometry width="60" relative="1" as="geometry">
            <mxPoint x="424.5" y="139" as="sourcePoint" />
            <mxPoint x="549.5" y="139" as="targetPoint" />
          </mxGeometry>
        </mxCell>
        <mxCell id="6rk3nvtCwCU-dYlgrRcQ-14" value="File System" style="shape=umlLifeline;participant=umlEntity;perimeter=lifelinePerimeter;whiteSpace=wrap;html=1;container=1;collapsible=0;recursiveResize=0;verticalAlign=top;spacingTop=36;outlineConnect=0;" parent="1" vertex="1">
          <mxGeometry x="680" y="30" width="40" height="400" as="geometry" />
        </mxCell>
        <mxCell id="6rk3nvtCwCU-dYlgrRcQ-16" value="4. Returns User path" style="html=1;verticalAlign=bottom;endArrow=open;dashed=1;endSize=8;rounded=0;" parent="1" source="6rk3nvtCwCU-dYlgrRcQ-5" edge="1">
          <mxGeometry relative="1" as="geometry">
            <mxPoint x="549.5" y="164" as="sourcePoint" />
            <mxPoint x="424.5" y="164" as="targetPoint" />
          </mxGeometry>
        </mxCell>
        <mxCell id="6rk3nvtCwCU-dYlgrRcQ-15" value="5. Requests MindMap" style="html=1;verticalAlign=bottom;startArrow=oval;startFill=1;endArrow=block;startSize=8;rounded=0;" parent="1" edge="1">
          <mxGeometry width="60" relative="1" as="geometry">
            <mxPoint x="424.5" y="190" as="sourcePoint" />
            <mxPoint x="699.5" y="190" as="targetPoint" />
          </mxGeometry>
        </mxCell>
        <mxCell id="6rk3nvtCwCU-dYlgrRcQ-18" value="6. Returns MindMap" style="html=1;verticalAlign=bottom;endArrow=open;dashed=1;endSize=8;rounded=0;" parent="1" edge="1">
          <mxGeometry relative="1" as="geometry">
            <mxPoint x="699.5" y="218" as="sourcePoint" />
            <mxPoint x="424.5" y="218" as="targetPoint" />
          </mxGeometry>
        </mxCell>
        <mxCell id="6rk3nvtCwCU-dYlgrRcQ-19" value="7. Creates MindMap Object &amp;amp;&lt;br&gt;Generates MindMap" style="html=1;verticalAlign=bottom;endArrow=open;dashed=1;endSize=8;rounded=0;" parent="1" target="6rk3nvtCwCU-dYlgrRcQ-3" edge="1">
          <mxGeometry relative="1" as="geometry">
            <mxPoint x="420" y="220" as="sourcePoint" />
            <mxPoint x="370" y="170" as="targetPoint" />
          </mxGeometry>
        </mxCell>
        <mxCell id="mTX0Zf34lOwFtFNKfacL-1" value="8. Populates React Notes Section with&amp;nbsp;&lt;br&gt;Structured Notes &amp;amp; MindMap Section&lt;br&gt;with Generated MindMap" style="html=1;verticalAlign=bottom;endArrow=open;dashed=1;endSize=8;rounded=0;" parent="1" target="6rk3nvtCwCU-dYlgrRcQ-2" edge="1">
          <mxGeometry relative="1" as="geometry">
            <mxPoint x="288.5" y="220" as="sourcePoint" />
            <mxPoint x="88.5" y="220" as="targetPoint" />
          </mxGeometry>
        </mxCell>
        <mxCell id="mTX0Zf34lOwFtFNKfacL-12" value="13. Requests User path" style="html=1;verticalAlign=bottom;startArrow=oval;startFill=1;endArrow=block;startSize=8;rounded=0;" parent="1" edge="1">
          <mxGeometry width="60" relative="1" as="geometry">
            <mxPoint x="425" y="324" as="sourcePoint" />
            <mxPoint x="580" y="324" as="targetPoint" />
          </mxGeometry>
        </mxCell>
        <mxCell id="mTX0Zf34lOwFtFNKfacL-13" value="14. Returns User path" style="html=1;verticalAlign=bottom;endArrow=open;dashed=1;endSize=8;rounded=0;" parent="1" edge="1">
          <mxGeometry relative="1" as="geometry">
            <mxPoint x="580" y="344" as="sourcePoint" />
            <mxPoint x="425" y="344" as="targetPoint" />
          </mxGeometry>
        </mxCell>
        <mxCell id="mTX0Zf34lOwFtFNKfacL-17" value="16. Confirm Successful&lt;br&gt;Save" style="html=1;verticalAlign=bottom;endArrow=open;dashed=1;endSize=8;rounded=0;" parent="1" edge="1">
          <mxGeometry relative="1" as="geometry">
            <mxPoint x="699.5" y="397" as="sourcePoint" />
            <mxPoint x="424.5" y="397" as="targetPoint" />
          </mxGeometry>
        </mxCell>
        <mxCell id="mTX0Zf34lOwFtFNKfacL-18" value="18. Update MindMap React Component&lt;br&gt;with Generated Mindmap" style="html=1;verticalAlign=bottom;endArrow=open;dashed=1;endSize=8;rounded=0;" parent="1" edge="1">
          <mxGeometry relative="1" as="geometry">
            <mxPoint x="290" y="404" as="sourcePoint" />
            <mxPoint x="69.5" y="404" as="targetPoint" />
          </mxGeometry>
        </mxCell>
        <mxCell id="S-c-iVjcR3PPTWWEFbm2-20" value="11. Requests Save/Compile" style="html=1;verticalAlign=bottom;startArrow=oval;startFill=1;endArrow=block;startSize=8;rounded=0;" parent="1" edge="1">
          <mxGeometry width="60" relative="1" as="geometry">
            <mxPoint x="69.5" y="318" as="sourcePoint" />
            <mxPoint x="289.5" y="318" as="targetPoint" />
          </mxGeometry>
        </mxCell>
        <mxCell id="S-c-iVjcR3PPTWWEFbm2-23" value="12. Post MindMap" style="html=1;verticalAlign=bottom;startArrow=oval;startFill=1;endArrow=block;startSize=8;rounded=0;" parent="1" edge="1">
          <mxGeometry width="60" relative="1" as="geometry">
            <mxPoint x="289.5" y="321" as="sourcePoint" />
            <mxPoint x="424.5" y="321" as="targetPoint" />
            <Array as="points">
              <mxPoint x="410" y="321" />
            </Array>
          </mxGeometry>
        </mxCell>
        <mxCell id="mTX0Zf34lOwFtFNKfacL-15" value="15. Posts.MindMap to User Folder" style="html=1;verticalAlign=bottom;startArrow=oval;startFill=1;endArrow=block;startSize=8;rounded=0;" parent="1" edge="1">
          <mxGeometry width="60" relative="1" as="geometry">
            <mxPoint x="425" y="363" as="sourcePoint" />
            <mxPoint x="700" y="363" as="targetPoint" />
          </mxGeometry>
        </mxCell>
        <mxCell id="4LdZk8a2jDNmQDks3TRu-2" value="17. Generate MindMap" style="html=1;verticalAlign=bottom;endArrow=open;dashed=1;endSize=8;rounded=0;" edge="1" parent="1">
          <mxGeometry relative="1" as="geometry">
            <mxPoint x="425" y="404" as="sourcePoint" />
            <mxPoint x="289.5" y="404" as="targetPoint" />
          </mxGeometry>
        </mxCell>
        <mxCell id="4LdZk8a2jDNmQDks3TRu-4" value="9. User Types in Text Editor Pane" style="html=1;verticalAlign=bottom;startArrow=oval;startFill=1;endArrow=block;startSize=8;rounded=0;" edge="1" parent="1">
          <mxGeometry width="60" relative="1" as="geometry">
            <mxPoint x="69.5" y="262" as="sourcePoint" />
            <mxPoint x="289.5" y="262" as="targetPoint" />
          </mxGeometry>
        </mxCell>
        <mxCell id="4LdZk8a2jDNmQDks3TRu-5" value="10. Draft.js React Component Updated" style="html=1;verticalAlign=bottom;endArrow=open;dashed=1;endSize=8;rounded=0;" edge="1" parent="1">
          <mxGeometry relative="1" as="geometry">
            <mxPoint x="289.5" y="289" as="sourcePoint" />
            <mxPoint x="69.5" y="289" as="targetPoint" />
          </mxGeometry>
        </mxCell>
      </root>
    </mxGraphModel>
  </diagram>
</mxfile>
